<?xml version="1.0" standalone="no"?><!DOCTYPE svg PUBLIC "-//W3C//DTD SVG 1.1//EN" "http://www.w3.org/Graphics/SVG/1.1/DTD/svg11.dtd"><svg t="1697191143790" class="icon" viewBox="0 0 1024 1024" version="1.1" xmlns="http://www.w3.org/2000/svg" p-id="1153" xmlns:xlink="http://www.w3.org/1999/xlink" width="200" height="200"><path d="M33.733529 191.279602m100.505419-30.214267l435.264564-130.85065q100.50542-30.214266 130.719686 70.291153l146.755009 488.169181q30.214266 100.50542-70.291153 130.719687l-435.264564 130.85065q-100.50542 30.214266-130.719686-70.291153l-146.755009-488.169182q-30.214266-100.50542 70.291153-130.719686Z" fill="#2c2c2c" p-id="1154" data-spm-anchor-id="a313x.collections_detail.0.i1.6d813a81QVSZQK" class="selected"></path><path d="M288.609078 269.868228c0-49.681242 40.274835-89.956076 89.956076-89.956076h521.745241c49.681242 0 89.956076 40.274835 89.956076 89.956076v707.267655c0 21.883315-22.682425 36.394729-42.550723 27.225206l-283.775438-130.973048a58.471449 58.471449 0 0 0-49.005071 0l-283.775438 130.973048C311.291502 1013.530612 288.609078 999.019198 288.609078 977.135883V269.868228z" fill="#e6e6e6" fill-opacity=".4" p-id="1155" data-spm-anchor-id="a313x.collections_detail.0.i2.6d813a81QVSZQK" class="selected"></path><path d="M461.02489 320.843338m35.232797 0l286.360175 0q35.232796 0 35.232797 35.232797l0 0q0 35.232796-35.232797 35.232796l-286.360175 0q-35.232796 0-35.232797-35.232796l0 0q0-35.232796 35.232797-35.232797Z" fill="#FFFFFF" p-id="1156"></path></svg>